<?xml version="1.0" encoding="UTF-8" standalone="no"?>
<!-- Created with Inkscape (http://www.inkscape.org/) -->

<svg
   xmlns:dc="http://purl.org/dc/elements/1.1/"
   xmlns:cc="http://creativecommons.org/ns#"
   xmlns:rdf="http://www.w3.org/1999/02/22-rdf-syntax-ns#"
   xmlns:svg="http://www.w3.org/2000/svg"
   xmlns="http://www.w3.org/2000/svg"
   xmlns:sodipodi="http://sodipodi.sourceforge.net/DTD/sodipodi-0.dtd"
   xmlns:inkscape="http://www.inkscape.org/namespaces/inkscape"
   width="128"
   height="128"
   viewBox="0 0 128 128"
   version="1.1"
   id="svg8"
   inkscape:version="0.92.5 (2060ec1f9f, 2020-04-08)"
   sodipodi:docname="logo_t.svg">
  <defs
     id="defs2" />
  <sodipodi:namedview
     id="base"
     pagecolor="#ffffff"
     bordercolor="#666666"
     borderopacity="1.0"
     inkscape:pageopacity="0.0"
     inkscape:pageshadow="2"
     inkscape:zoom="0.35"
     inkscape:cx="-101.42857"
     inkscape:cy="560"
     inkscape:document-units="mm"
     inkscape:current-layer="layer1"
     showgrid="false"
     inkscape:window-width="1920"
     inkscape:window-height="1017"
     inkscape:window-x="-8"
     inkscape:window-y="-8"
     inkscape:window-maximized="1" />
  <metadata
     id="metadata5">
    <rdf:RDF>
      <cc:Work
         rdf:about="">
        <dc:format>image/svg+xml</dc:format>
        <dc:type
           rdf:resource="http://purl.org/dc/dcmitype/StillImage" />
        <dc:title></dc:title>
      </cc:Work>
    </rdf:RDF>
  </metadata>
  <g
     inkscape:label="Layer 1"
     inkscape:groupmode="layer"
     id="layer1">
    <g
       id="g826"
       transform="translate(-37.797619,-72.571429)">
      <path
         style="fill:#fefdfd;stroke-width:0.08466667"
         d="M 44.843094,135.22619 V 81.03952 h 54.18667 54.186666 v 54.18667 54.18667 H 99.029764 44.843094 Z"
         id="path830"
         inkscape:connector-curvature="0" />
      <path
         style="fill:#fd6840;stroke-width:0.08466667"
         d="m 72.079514,185.54839 c -0.03213,-0.0321 -0.05842,-4.14449 -0.05842,-9.13858 v -9.08016 l -1.0795,-0.95777 c -3.01525,-2.67526 -5.420399,-5.37843 -7.501267,-8.43076 -3.400441,-4.98795 -5.646094,-10.20915 -6.94828,-16.15492 -0.392716,-1.79313 -0.510311,-2.5573 -0.781493,-5.07834 -0.580165,-5.3935 -0.09796,-11.20182 1.37659,-16.58137 0.525556,-1.91737 1.23483,-3.94909 2.103196,-6.02463 0.590834,-1.4122 1.780164,-3.72904 2.738157,-5.334 1.218911,-2.04209 2.932574,-4.42087 4.513518,-6.26534 1.074268,-1.25333 3.37305,-3.55771 4.563079,-4.574183 0.48895,-0.417642 0.916991,-0.797554 0.951203,-0.844249 0.03421,-0.04669 0.06279,-1.99631 0.0635,-4.332476 6.78e-4,-2.336167 0.02442,-4.307842 0.05269,-4.3815 0.04384,-0.114249 0.246594,-0.133925 1.380067,-0.133925 0.920525,0 1.359885,0.03121 1.430275,0.1016 0.07534,0.07533 0.1016,0.905764 0.1016,3.212337 0,1.756933 0.03323,3.131275 0.07636,3.15793 0.042,0.02596 0.280124,-0.08997 0.529167,-0.257616 0.799221,-0.538002 2.539991,-1.572602 3.576701,-2.125757 4.998236,-2.666893 10.662848,-4.382378 16.349439,-4.951305 1.471553,-0.147225 6.910444,-0.147225 8.382004,0 4.1033,0.410523 8.21953,1.42244 12.10903,2.976827 12.03737,4.810589 21.53107,15.018017 25.63446,27.561657 0.77078,2.35618 1.46594,5.25389 1.75246,7.30494 0.42951,3.07465 0.46321,3.58108 0.46321,6.96139 0,3.38031 -0.0337,3.88674 -0.46321,6.96139 -0.58485,4.18668 -2.22032,9.34951 -4.23169,13.35861 -5.05378,10.0733 -13.36079,17.6983 -23.65084,21.70909 -4.4921,1.75089 -8.81753,2.65807 -14.0473,2.94615 -2.053841,0.11313 -4.214408,0.0281 -6.752457,-0.26591 -6.546667,-0.75824 -12.668458,-2.92367 -18.372668,-6.49885 -0.62865,-0.39402 -1.1811,-0.72293 -1.227667,-0.73093 -0.0557,-0.01 -0.09915,2.7084 -0.127,7.94412 l -0.04233,7.95867 -1.402082,0.0231 c -0.771144,0.0127 -1.428369,-0.003 -1.4605,-0.0353 z M 103.05143,175.0944 c 5.13464,-0.38305 10.55799,-1.93749 15.32467,-4.39234 5.1813,-2.66838 9.46194,-6.12738 13.30748,-10.7532 5.31518,-6.39365 8.79948,-14.82814 9.65335,-23.368 0.20707,-2.07097 0.20707,-6.73437 0,-8.80534 -0.8792,-8.7931 -4.47501,-17.30506 -10.08626,-23.876 -5.00241,-5.857987 -11.32126,-10.178744 -18.42733,-12.600392 -4.79342,-1.633531 -10.45479,-2.432083 -15.190576,-2.142674 -7.486479,0.457507 -14.430428,2.762661 -20.574001,6.829866 -0.651934,0.431597 -1.375834,0.932903 -1.608667,1.114013 l -0.423333,0.329292 -0.02127,34.725195 -0.02127,34.7252 0.359935,0.29179 c 0.556221,0.45092 2.115393,1.4987 3.233112,2.17268 6.599434,3.97944 14.294683,6.04745 21.84949,5.8718 0.79164,-0.0184 1.97274,-0.0732 2.62467,-0.12189 z m 15.95967,-28.42978 c -1.83316,-0.59756 -4.76102,-3.24625 -7.82407,-7.0781 -0.70726,-0.88476 -1.54508,-1.97061 -1.86181,-2.413 -0.31674,-0.44238 -0.64898,-0.89958 -0.73831,-1.016 -0.0893,-0.11641 -0.36138,-0.50694 -0.60455,-0.86783 -0.24926,-0.36992 -0.50243,-0.65617 -0.58035,-0.65617 -0.076,0 -0.37216,0.20875 -0.6581,0.46389 -0.28594,0.25514 -0.72348,0.61429 -0.97232,0.79811 -0.24883,0.18383 -0.67691,0.53197 -0.95129,0.77366 -0.27438,0.24169 -0.6178,0.52071 -0.76316,0.62005 -0.14537,0.0993 -0.48827,0.3514 -0.762,0.56012 -1.18358,0.90247 -2.91788,2.09653 -4.138376,2.84926 -1.354056,0.83509 -3.170725,1.73009 -4.318,2.1273 -0.706566,0.24462 -1.000779,0.29979 -1.778,0.33338 -0.85725,0.037 -0.960641,0.0245 -1.299768,-0.15777 -0.202638,-0.10891 -0.488388,-0.36352 -0.635,-0.56579 -0.245423,-0.3386 -0.268738,-0.42924 -0.293956,-1.14282 -0.05209,-1.47384 0.214622,-2.25236 1.918835,-5.60105 0.353384,-0.69439 2.700548,-4.19133 3.307334,-4.92746 0.275759,-0.33455 0.333623,-0.53252 0.156388,-0.53506 -0.261902,-0.004 -3.240526,-0.53344 -4.453569,-0.79196 -2.653007,-0.56542 -5.475638,-1.66478 -6.554295,-2.55279 -0.932546,-0.76773 -1.166859,-1.71371 -0.633803,-2.55884 1.121468,-1.77802 6.220707,-3.43194 12.911667,-4.18783 1.047799,-0.11838 1.629834,-0.21834 1.629834,-0.27992 0,-0.0527 -0.147205,-0.45497 -0.327122,-0.89397 -0.366415,-0.89405 -0.788346,-1.94015 -1.039071,-2.57617 -0.09178,-0.23284 -0.201598,-0.49954 -0.244031,-0.59267 -0.500281,-1.09803 -1.717457,-5.15452 -1.905357,-6.35 -0.02928,-0.18627 -0.08678,-0.43392 -0.127785,-0.55033 -0.041,-0.11642 -0.114709,-0.63355 -0.163787,-1.14918 -0.160479,-1.68606 0.112194,-3.03335 0.729329,-3.60366 0.461741,-0.42671 0.762114,-0.52273 1.48102,-0.47346 1.012238,0.0694 2.082701,0.64298 3.702843,1.98412 2.33043,1.92912 5.39222,5.51168 8.14358,9.52868 0.27908,0.40745 0.53501,0.74058 0.56873,0.74027 0.0925,-8.5e-4 0.51536,-0.29199 0.63414,-0.43658 0.0575,-0.07 0.40931,-0.37155 0.78184,-0.67017 0.37254,-0.29863 0.90594,-0.7466 1.18534,-0.9955 0.2794,-0.24889 0.6223,-0.51184 0.762,-0.58431 0.1397,-0.0725 0.4445,-0.29383 0.67733,-0.49188 0.23283,-0.19806 0.66327,-0.52583 0.95652,-0.72839 1.98102,-1.36832 3.65499,-2.47 4.12348,-2.71376 0.33633,-0.175 1.14193,-0.6034 1.35467,-0.72038 0.38729,-0.21297 1.30907,-0.61456 1.86267,-0.81152 1.86612,-0.66393 3.0467,-0.63614 3.78988,0.0892 0.3869,0.37763 0.4856,0.70234 0.48234,1.58683 -0.004,1.18378 -0.33046,2.22209 -1.30507,4.15564 -0.8375,1.66153 -1.77593,3.17834 -2.99021,4.83316 -0.29208,0.39805 -0.57449,0.80536 -0.62758,0.90513 -0.0531,0.0998 -0.211,0.32426 -0.35092,0.49887 -0.13992,0.17461 -0.23851,0.32966 -0.21909,0.34456 0.0893,0.0685 0.75713,0.22349 1.17831,0.27344 2.06675,0.24515 5.46498,1.06604 7.32064,1.76842 0.78497,0.29711 2.08502,0.98695 2.60237,1.38089 1.21146,0.92244 1.21368,2.28453 0.005,3.27929 -1.34605,1.10814 -4.83583,2.31726 -8.47899,2.93775 -0.54104,0.0922 -1.18327,0.20317 -1.42718,0.24671 -0.24391,0.0435 -0.92971,0.13916 -1.524,0.21249 -2.45644,0.30309 -2.47751,0.30695 -2.47751,0.45403 0,0.0763 0.0318,0.17495 0.0707,0.21919 0.0389,0.0442 0.14035,0.27093 0.22551,0.50376 0.0852,0.23284 0.25715,0.65194 0.38219,0.93134 0.12505,0.2794 0.27661,0.64135 0.33681,0.80433 0.0987,0.26718 0.4129,1.04318 0.59996,1.48167 0.30584,0.71694 1.33894,3.92052 1.55631,4.826 0.4486,1.86872 0.55325,2.40939 0.63911,3.302 0.19245,2.00098 -0.20762,3.39644 -1.10499,3.85425 -0.41981,0.21417 -1.2975,0.21711 -1.94357,0.007 z m 1.29388,-1.05367 c 0.27595,-0.11537 0.39601,-0.28823 0.56181,-0.80889 0.13236,-0.41569 0.11591,-2.03514 -0.0247,-2.43377 -0.064,-0.18141 -0.14196,-0.53863 -0.17324,-0.79381 -0.0788,-0.64296 -0.86918,-3.33021 -1.35668,-4.61262 -0.10621,-0.2794 -0.26079,-0.6985 -0.34352,-0.93134 -0.18533,-0.52163 -0.92773,-2.33366 -1.14471,-2.794 -0.0878,-0.18626 -0.35751,-0.78633 -0.59934,-1.33347 -0.24184,-0.54714 -0.48954,-1.03616 -0.55044,-1.0867 -0.0797,-0.0661 -0.56879,-0.0642 -1.74437,0.007 -0.89851,0.0543 -2.08741,0.11707 -2.64199,0.13939 l -1.00835,0.0406 -1.34115,1.27774 c -0.73764,0.70276 -1.34116,1.31309 -1.34116,1.3563 0,0.14905 1.78078,2.73321 2.78942,4.04784 0.3052,0.39779 0.63111,0.8243 0.72424,0.94781 0.67031,0.88893 1.20707,1.56745 1.35271,1.70995 0.0942,0.0922 0.25149,0.27395 0.34951,0.40392 0.36815,0.4882 2.22159,2.40636 2.97437,3.07826 1.17311,1.04706 2.09698,1.63546 2.85875,1.82071 0.36723,0.0893 0.36128,0.0896 0.65888,-0.0348 z M 93.992097,142.0343 c 0.186267,-0.0699 0.548217,-0.19862 0.804333,-0.286 0.861572,-0.29396 2.581322,-1.23874 4.166166,-2.28878 0.456846,-0.30268 0.946658,-0.62653 1.088474,-0.71966 0.14181,-0.0931 0.45581,-0.32144 0.69777,-0.50734 0.24196,-0.1859 0.63556,-0.47165 0.87466,-0.635 0.47847,-0.32687 1.13635,-0.85124 2.13111,-1.69864 0.35832,-0.30523 0.82294,-0.67317 1.03249,-0.81764 0.20955,-0.14447 0.7186,-0.58053 1.13123,-0.96903 l 0.75023,-0.70635 -0.39145,-0.635 c -0.2153,-0.34925 -0.45765,-0.74359 -0.53857,-0.87631 -0.0809,-0.13272 -0.2497,-0.38655 -0.37508,-0.56406 -0.27028,-0.38264 0.061,-0.3367 -4.59803,-0.6378 -1.071033,-0.0692 -2.181809,-0.14919 -2.468393,-0.1777 l -0.521059,-0.0519 -0.198607,0.29633 c -0.109234,0.16297 -0.370057,0.51523 -0.579607,0.78279 -0.496959,0.63453 -1.00869,1.32678 -1.408923,1.90594 -0.176991,0.25612 -0.440205,0.61807 -0.584919,0.80433 -0.144714,0.18627 -0.374425,0.52324 -0.51047,0.74882 -0.136045,0.22559 -0.368057,0.60659 -0.515583,0.84667 -0.147526,0.24008 -0.417249,0.70321 -0.599385,1.02918 -0.182137,0.32597 -0.373712,0.66887 -0.425723,0.762 -0.375005,0.6715 -0.889929,1.90798 -1.04014,2.49767 -0.112028,0.43979 -0.08961,1.36797 0.03863,1.59934 0.06168,0.1113 0.203209,0.25282 0.3145,0.3145 0.273173,0.15141 1.305413,0.1416 1.726347,-0.0164 z M 108.87226,131.512 c 0.51437,-0.48522 0.46351,-0.51914 -0.77817,-0.51914 -0.60261,0 -1.11565,0.0323 -1.14008,0.0719 -0.0244,0.0395 0.14816,0.36519 0.38352,0.72371 l 0.42793,0.65184 0.39465,-0.31438 c 0.21706,-0.17291 0.53753,-0.44916 0.71215,-0.61389 z m 3.1115,-3.05338 c 1.48321,-1.5057 1.8552,-1.89874 2.14422,-2.26555 0.15336,-0.19464 0.1495,-0.2054 -0.50269,-1.40235 -0.36148,-0.66341 -0.75487,-1.38569 -0.87421,-1.60506 -0.11934,-0.21938 -0.51874,-0.89289 -0.88755,-1.49669 l -0.67056,-1.09782 -1.1921,-0.0437 c -0.65566,-0.024 -1.24926,-0.0447 -1.31911,-0.046 -0.0699,-0.001 -0.51666,0.0192 -0.99292,0.0454 l -0.86593,0.0477 -1.82224,1.86053 c -1.17561,1.20031 -1.82224,1.92212 -1.82224,2.0341 0,0.19029 1.39472,2.80692 2.12383,3.98449 0.25218,0.40729 0.55616,0.90259 0.67552,1.10066 l 0.21702,0.36014 1.17998,0.0423 c 0.64899,0.0233 1.61813,0.0296 2.15365,0.0141 l 0.97367,-0.0282 z m -4.11291,-0.97252 c -0.42726,-0.18605 -0.89631,-0.65521 -1.10667,-1.10696 -0.29347,-0.6302 -0.2841,-1.70176 0.0202,-2.31246 0.79442,-1.59419 3.06707,-1.58085 3.81364,0.0224 0.24376,0.52349 0.27598,1.57178 0.0671,2.18469 -0.14913,0.4377 -0.71312,1.01621 -1.18148,1.2119 -0.36075,0.15073 -1.26714,0.15098 -1.61285,4.2e-4 z m -3.42242,2.4078 c 0,-0.0456 -0.35242,-0.69136 -0.78317,-1.43495 -0.43074,-0.7436 -0.86093,-1.49684 -0.95598,-1.67388 -0.51922,-0.9671 -0.64175,-1.12669 -0.80005,-1.04198 -0.0845,0.0452 -0.28038,0.2448 -0.43531,0.44349 -0.15492,0.1987 -0.80188,0.93636 -1.43769,1.63924 -1.078288,1.19204 -1.35411,1.57761 -1.222616,1.70911 0.0516,0.0516 2.029576,0.22297 4.026146,0.34882 1.543,0.0973 1.60867,0.0977 1.60867,0.0102 z m 11.176,-0.10318 c 0.20955,-0.0511 0.41096,-0.11907 0.44757,-0.15115 0.0627,-0.055 -0.84405,-1.944 -1.05138,-2.19023 -0.0773,-0.0918 -0.34557,0.13422 -1.35497,1.14194 -0.6922,0.69105 -1.25855,1.28814 -1.25855,1.32685 0,0.0964 2.74466,-0.0122 3.21733,-0.12741 z m 3.59834,-0.27784 c 1.58217,-0.16383 3.74037,-0.44303 4.23333,-0.54765 0.23283,-0.0494 0.82338,-0.1646 1.31233,-0.25596 1.27679,-0.23859 2.46416,-0.498 2.70934,-0.59193 0.11641,-0.0446 0.45907,-0.1432 0.76145,-0.21911 0.80116,-0.20114 2.15861,-0.7565 2.81334,-1.15101 1.37367,-0.8277 1.59962,-1.58598 0.72018,-2.41685 -0.51881,-0.49015 -0.97256,-0.76849 -1.84213,-1.13001 -1.13556,-0.4721 -3.18063,-1.05237 -4.44251,-1.26053 -0.32597,-0.0538 -0.71091,-0.13545 -0.85543,-0.18151 -0.14452,-0.0461 -0.81127,-0.16191 -1.48167,-0.25745 -0.67039,-0.0955 -1.4094,-0.20595 -1.64223,-0.24535 -0.23284,-0.0394 -0.59638,-0.0744 -0.80788,-0.0778 -0.34566,-0.006 -0.41923,0.0302 -0.72766,0.35366 -0.18872,0.1979 -0.56259,0.64558 -0.83081,0.99483 -0.53528,0.69698 -1.63307,1.9658 -2.52315,2.91623 -0.31433,0.33564 -0.5715,0.67353 -0.5715,0.75085 0,0.0773 0.17145,0.45056 0.381,0.8294 0.20955,0.37883 0.381,0.70785 0.381,0.73113 0,0.0625 0.84591,1.77075 0.9072,1.83203 0.0686,0.0686 0.20065,0.0622 1.5058,-0.0729 z m -21.835581,-0.48852 c 0.187008,-0.19791 0.447729,-0.5217 0.57938,-0.71953 0.131651,-0.19783 0.626708,-0.78838 1.100127,-1.31233 0.473418,-0.52396 0.979284,-1.12409 1.124144,-1.33364 0.14485,-0.20955 0.45722,-0.57007 0.69415,-0.80115 0.23693,-0.23109 0.43077,-0.48363 0.43077,-0.5612 0,-0.0776 -0.17145,-0.45101 -0.381,-0.82984 -0.20955,-0.37884 -0.38257,-0.71685 -0.3845,-0.75114 -0.002,-0.0343 -0.20304,-0.46239 -0.44693,-0.95134 -0.441555,-0.88524 -0.444674,-0.88893 -0.737332,-0.87154 -0.578223,0.0344 -2.928822,0.27992 -3.468901,0.3624 -0.302683,0.0462 -1.07979,0.15952 -1.726905,0.25178 -0.647115,0.0923 -1.294815,0.20543 -1.439334,0.25149 -0.144518,0.0461 -0.529461,0.12774 -0.855428,0.18151 -0.695452,0.11472 -2.271071,0.50861 -3.179085,0.79475 -2.500005,0.78781 -3.91689,1.92199 -3.563204,2.85225 0.20906,0.54987 1.138461,1.25568 2.212622,1.68032 0.256117,0.10125 0.591803,0.23849 0.74597,0.30498 0.598405,0.25807 2.844994,0.82496 4.503364,1.13634 0.48895,0.0918 1.0795,0.20768 1.312333,0.25749 0.323198,0.0692 2.012428,0.29534 3.051539,0.40861 0.04851,0.005 0.241212,-0.15231 0.42822,-0.35021 z m 19.179251,-5.4698 c 1.37681,-1.52916 2.02133,-2.30547 2.02133,-2.43465 0,-0.19619 -0.50484,-0.27883 -2.24367,-0.3673 -0.9779,-0.0498 -2.14948,-0.11226 -2.6035,-0.1389 -0.66887,-0.0392 -0.8255,-0.0263 -0.8255,0.0684 0,0.0643 0.0379,0.15479 0.0843,0.20116 0.074,0.074 1.21367,2.0181 1.73242,2.95522 0.36081,0.65181 0.5712,0.97367 0.63647,0.97367 0.0362,0 0.57536,-0.56593 1.19814,-1.25763 z m -12.85994,-1.59874 c 0.6409,-0.63966 1.16526,-1.21313 1.16526,-1.27436 0,-0.0899 -0.28885,-0.10049 -1.50283,-0.0549 -0.82656,0.031 -1.63618,0.0831 -1.79917,0.11577 -0.34476,0.0691 -0.3499,0.17001 -0.0391,0.76788 0.10893,0.20955 0.33489,0.65722 0.50214,0.99483 0.16725,0.33761 0.35007,0.61384 0.40627,0.61384 0.0562,0 0.62654,-0.52337 1.26743,-1.16304 z m 15.86342,-1.94976 c 0.0512,-0.0342 0.13555,-0.14278 0.18736,-0.24127 0.0518,-0.0985 0.32966,-0.46043 0.61745,-0.80433 0.28778,-0.3439 0.62123,-0.77767 0.741,-0.96394 0.11977,-0.18626 0.3564,-0.51011 0.52585,-0.71966 0.16945,-0.20955 0.35744,-0.47625 0.41777,-0.59267 0.0603,-0.11642 0.23957,-0.38312 0.39833,-0.59267 0.93458,-1.23352 2.37391,-3.87049 2.80669,-5.14205 0.30845,-0.90624 0.36713,-1.87265 0.13392,-2.20559 -0.32288,-0.46098 -1.07584,-0.56693 -1.95022,-0.27444 -0.27498,0.092 -0.54567,0.16819 -0.60153,0.16933 -0.19672,0.004 -2.95836,1.40249 -3.23235,1.63681 -0.0756,0.0647 -0.19481,0.13762 -0.26494,0.16216 -0.22408,0.0784 -2.53513,1.66166 -2.87815,1.97177 -0.11642,0.10524 -0.32597,0.24961 -0.46567,0.32081 -0.1397,0.0712 -0.57246,0.39941 -0.96169,0.72933 -0.38923,0.32993 -0.73619,0.59987 -0.77102,0.59987 -0.0348,0 -0.38846,0.27623 -0.78585,0.61384 -0.3974,0.3376 -0.99964,0.84243 -1.33833,1.12183 -0.99537,0.82114 -1.35011,1.1714 -1.35011,1.33308 0,0.15873 0.11815,0.36359 0.94756,1.64303 l 0.50225,0.77477 1.15893,0.0543 c 1.44705,0.0679 4.36391,0.28218 5.09593,0.37444 0.76959,0.097 0.95996,0.10257 1.06682,0.0312 z m -15.12603,-0.41327 1.64645,-0.0575 1.33805,-1.26866 c 0.73592,-0.69776 1.33804,-1.31833 1.33804,-1.37904 0,-0.16621 -1.99192,-3.07927 -2.74322,-4.0118 -0.24457,-0.30356 -0.51737,-0.66622 -0.60624,-0.80592 -0.0889,-0.1397 -0.52411,-0.6878 -0.96722,-1.21799 -0.44311,-0.5302 -0.92358,-1.12075 -1.06772,-1.31234 -0.52912,-0.70333 -3.21063,-3.31258 -3.820233,-3.71729 -0.336033,-0.22309 -0.631556,-0.43893 -0.65672,-0.47964 -0.07456,-0.12064 -1.198045,-0.52216 -1.483767,-0.53029 -0.394873,-0.0112 -0.697411,0.26264 -0.871015,0.78845 -0.192488,0.58301 -0.161112,2.00005 0.06731,3.0401 0.238413,1.08551 1.093066,4.0164 1.394927,4.78366 0.146564,0.37254 0.3264,0.84879 0.399635,1.05834 0.191865,0.54898 0.899221,2.24831 1.430224,3.43592 0.251559,0.56261 0.457369,1.04914 0.457369,1.08119 0,0.032 0.0993,0.21549 0.22058,0.40766 l 0.22057,0.34941 1.02826,-0.0534 c 0.56554,-0.0294 1.76917,-0.0793 2.67472,-0.11088 z m 5.9761,-0.11874 c 0.0633,-0.10239 -0.72138,-1.34779 -0.85021,-1.34943 -0.13931,-0.002 -1.48605,1.27639 -1.43385,1.36085 0.068,0.11011 2.21559,0.0994 2.28406,-0.0114 z m -38.398894,12.70414 c 0,-17.64327 -0.02988,-32.09714 -0.06641,-32.11972 -0.03652,-0.0226 -0.411416,0.2895 -0.83309,0.6935 -5.86036,5.61475 -10.037204,12.93567 -12.012373,21.05455 -0.249233,1.02447 -0.496228,2.16747 -0.548877,2.54 -0.05265,0.37254 -0.148591,0.96587 -0.213206,1.31853 -0.06461,0.35266 -0.185001,1.30516 -0.267526,2.11667 -0.204692,2.01284 -0.206656,6.80509 -0.0036,8.76193 1.010033,9.73326 4.907894,18.36583 11.542017,25.56204 1.03519,1.1229 2.240212,2.25092 2.339558,2.19007 0.03492,-0.0214 0.0635,-14.4743 0.0635,-32.11757 z"
         id="path828"
         inkscape:connector-curvature="0" />
    </g>
  </g>
</svg>
